# xmcd
#
# Track frame offsets:
#	150
#	17595
#	36552
#	58840
#	76885
#	91682
#	116280
#	132212
#
# Disc length: 1956 seconds
#
# Revision: 2
# Processed by: cddbd v1.5.2PL0 Copyright (c) Steve Scherf et al.
# Submitted via: audiograbber 1.83.01
#
DISCID=5b07a208
DTITLE=Mario Benjamin - Un Autre Ticket
DYEAR=1995
DGENRE=Québécois
TTITLE0=Un Autre Ticket (Mario Benjamin)
TTITLE1=J'ai Perdu La Mémoire (Mario Benjamin)
TTITLE2=Face à L'amour (Mario Benjamin)
TTITLE3=Moé Qui Pensais Qu'a Toé (Mario Benjamin)
TTITLE4=Un Monde De Fou (Mario Benjamin)
TTITLE5=J'ai Un Secret (Mario Benjamin)
TTITLE6=La Routine (Mario Benjamin)
TTITLE7=Je Roule Au Son Du Rock'n Roll (reprise de Bob Seger)  (Mario Benjamin-
TTITLE7=Thomas Jones,Georges Jackson)
EXTD=YEAR: 1995
EXTT0=
EXTT1=
EXTT2=
EXTT3=
EXTT4=
EXTT5=
EXTT6=
EXTT7=
PLAYORDER=
